# xmcd CD database file
#
# Track frame offsets:
#	150
#	16276
#	50338
#	70670
#	86084
#	112188
#	128576
#	154405
#
# Disc length: 2253 seconds
#
# Revision: 0
# Processed by: cddbd v1.5.2PL0 Copyright (c) Steve Scherf et al.
# Submitted via: CDex 1.70beta2
#
DISCID=6508cb08
DTITLE=Tadeusz Nalepa - Pozna￱ - Gieﾳda - Live
DYEAR=2008
DGENRE=Blues
TTITLE0=Tadeusz Nalepa - Nauczylem sie niewiary
TTITLE1=Tadeusz Nalepa - Jedz ostroznie nie poedzaj kol
TTITLE2=Tadeusz Nalepa - To moj blues
TTITLE3=Tadeusz Nalepa - Nie uciekaj dokad uciec masz
TTITLE4=Tadeusz Nalepa - Musisz walczyc, musisz wierzyc
TTITLE5=Tadeusz Nalepa - Swiety Boze nie pomoze
TTITLE6=Tadeusz Nalepa - Kamienie
TTITLE7=Tadeusz Nalepa - Zasady gry
EXTD=YEAR: 2008
EXTT0=
EXTT1=
EXTT2=
EXTT3=
EXTT4=
EXTT5=
EXTT6=
EXTT7=
PLAYORDER=
